<?xml version="1.0" standalone="no"?><svg xmlns="http://www.w3.org/2000/svg" viewBox="0 0 1440 320"><path fill="#00cba9" fill-opacity="1" d="M0,96L30,85.3C60,75,120,53,180,42.7C240,32,300,32,360,80C420,128,480,224,540,256C600,288,660,256,720,229.3C780,203,840,181,900,197.3C960,213,1020,267,1080,282.7C1140,299,1200,277,1260,256C1320,235,1380,213,1410,202.7L1440,192L1440,0L1410,0C1380,0,1320,0,1260,0C1200,0,1140,0,1080,0C1020,0,960,0,900,0C840,0,780,0,720,0C660,0,600,0,540,0C480,0,420,0,360,0C300,0,240,0,180,0C120,0,60,0,30,0L0,0Z"></path></svg>